<svg width="10" height="13" viewBox="0 0 10 13" fill="none" xmlns="http://www.w3.org/2000/svg">
<path d="M5.60712 1C5.60712 0.664697 5.3353 0.39288 5 0.39288C4.6647 0.39288 4.39288 0.664697 4.39288 1L5.60712 1ZM4.5707 12.1167C4.8078 12.3538 5.1922 12.3538 5.4293 12.1167L9.29298 8.253C9.53008 8.0159 9.53008 7.6315 9.29298 7.3944C9.05589 7.15731 8.67148 7.15731 8.43439 7.3944L5 10.8288L1.56561 7.3944C1.32852 7.15731 0.94411 7.15731 0.707015 7.3944C0.46992 7.6315 0.46992 8.0159 0.707015 8.253L4.5707 12.1167ZM4.39288 1L4.39288 11.6874L5.60712 11.6874L5.60712 1L4.39288 1Z" fill="#75A637"/>
</svg>
