<svg width="796" height="1046" viewBox="0 0 796 1046" fill="none" xmlns="http://www.w3.org/2000/svg">
<path d="M527.153 82.8855C622.567 -71.9779 748.027 37.1934 778.604 39.64C785.688 34.8158 789.956 27.9648 792.409 21.5241C798.727 4.9419 793.022 -8.92113 792.409 21.5241C792.162 33.8273 792.746 53.3663 795.291 82.8855C809.404 246.56 609.006 261.241 527.153 330.234C445.3 399.227 429.412 440.099 381.794 585.65C301.352 831.528 24.0408 807.307 7.81135 551.887C-8.41807 296.468 -29.5895 421.979 287.238 343.445C473.831 297.193 462.94 187.108 527.153 82.8855Z" fill="url(#paint0_linear)"/>
<path d="M527.153 585.65C590.379 484.654 701.207 495.129 748.718 512.991C739.78 675.686 721.622 1008.12 720.493 1036.31C719.364 1064.49 456.118 1024.56 324.636 1001.08C319.932 969.271 331.975 891.569 417.779 835.2C525.035 764.74 448.121 711.895 527.153 585.65Z" fill="url(#paint1_linear)"/>
<defs>
<linearGradient id="paint0_linear" x1="172.891" y1="-421.079" x2="935.826" y2="1900.81" gradientUnits="userSpaceOnUse">
<stop stop-color="#C1C1C1"/>
<stop offset="1" stop-color="white" stop-opacity="0"/>
</linearGradient>
<linearGradient id="paint1_linear" x1="172.891" y1="-421.079" x2="935.826" y2="1900.81" gradientUnits="userSpaceOnUse">
<stop stop-color="#C1C1C1"/>
<stop offset="1" stop-color="white" stop-opacity="0"/>
</linearGradient>
</defs>
</svg>
