<svg width="11" height="11" viewBox="0 0 11 11" fill="none" xmlns="http://www.w3.org/2000/svg">
<g clip-path="url(#clip0)">
<path d="M7.7014 10.9694H1.45493C1.2545 10.9694 1.06228 10.8898 0.920561 10.7481C0.778838 10.6064 0.699219 10.4141 0.699219 10.2137V3.33676C0.699219 3.13634 0.778838 2.94412 0.920561 2.8024C1.06228 2.66067 1.2545 2.58105 1.45493 2.58105H7.7014C7.90183 2.58105 8.09404 2.66067 8.23577 2.8024C8.37749 2.94412 8.45711 3.13634 8.45711 3.33676V10.2137C8.45711 10.4141 8.37749 10.6064 8.23577 10.7481C8.09404 10.8898 7.90183 10.9694 7.7014 10.9694ZM1.45493 3.01289C1.36903 3.01289 1.28665 3.04701 1.22591 3.10775C1.16517 3.16849 1.13105 3.25087 1.13105 3.33676V10.2137C1.13105 10.2996 1.16517 10.382 1.22591 10.4427C1.28665 10.5035 1.36903 10.5376 1.45493 10.5376H7.7014C7.7873 10.5376 7.86968 10.5035 7.93042 10.4427C7.99115 10.382 8.02528 10.2996 8.02528 10.2137V3.33676C8.02528 3.25087 7.99115 3.16849 7.93042 3.10775C7.86968 3.04701 7.7873 3.01289 7.7014 3.01289H1.45493Z" fill="white"/>
<path d="M9.20864 9.17938H8.96034V8.74755H9.20864C9.3511 8.73702 9.48371 8.67089 9.57784 8.56344C9.67196 8.45598 9.72005 8.31582 9.71173 8.17321V1.79719C9.72005 1.65458 9.67196 1.51442 9.57784 1.40696C9.48371 1.29951 9.3511 1.23338 9.20864 1.22285H3.40912C3.26666 1.23338 3.13405 1.29951 3.03992 1.40696C2.9458 1.51442 2.89771 1.65458 2.90603 1.79719V2.04333H2.4742V1.79719C2.46544 1.53997 2.55886 1.28974 2.73405 1.1012C2.90924 0.912658 3.15195 0.801138 3.40912 0.791016H9.20864C9.46581 0.801138 9.70852 0.912658 9.88371 1.1012C10.0589 1.28974 10.1523 1.53997 10.1436 1.79719V8.17321C10.1523 8.43043 10.0589 8.68066 9.88371 8.8692C9.70852 9.05774 9.46581 9.16926 9.20864 9.17938Z" fill="white"/>
</g>
<defs>
<clipPath id="clip0">
<rect width="9.4442" height="10.1783" fill="white" transform="translate(0.699219 0.791992)"/>
</clipPath>
</defs>
</svg>
