<svg width="24" height="24" viewBox="0 0 24 24" fill="none" xmlns="http://www.w3.org/2000/svg">
<path d="M9.82074 12.7914L9.80664 20.9999L13.3867 21L13.4008 12.7915H16.2358C16.4908 12.7915 16.7055 12.6008 16.7355 12.3475L17.0491 9.70162C17.0846 9.40234 16.8508 9.13919 16.5494 9.13919H13.3867V6.92583C13.3867 5.92206 13.6654 5.23809 15.1047 5.23809L16.4376 5.23747C16.7153 5.2373 16.9405 5.01208 16.9405 4.73427V2.5032C16.9405 2.22528 16.7152 2 16.4373 2H14.2655C11.6187 2 9.80669 3.61553 9.80669 6.58249V9.13913H7.67801C7.39935 9.13913 7.17374 9.36559 7.17481 9.64425L7.18503 12.2902C7.1861 12.5673 7.41104 12.7914 7.68818 12.7914H9.82074Z" fill="white"/>
</svg>
