<svg width="19" height="19" viewBox="0 0 19 19" fill="none" xmlns="http://www.w3.org/2000/svg">
<path d="M13.3398 0H5.6602C2.53915 0 0 2.53915 0 5.6602V13.3398C0 16.4608 2.53915 19 5.6602 19H13.3398C16.4608 19 19 16.4608 19 13.3398V5.6602C19 2.53915 16.4608 0 13.3398 0ZM17.0886 13.3398C17.0886 15.4102 15.4102 17.0886 13.3398 17.0886H5.6602C3.58981 17.0886 1.9114 15.4102 1.9114 13.3398V5.6602C1.9114 3.58978 3.58981 1.9114 5.6602 1.9114H13.3398C15.4102 1.9114 17.0886 3.58978 17.0886 5.6602V13.3398Z" fill="white"/>
<path d="M9.50001 4.58594C6.79039 4.58594 4.58594 6.79039 4.58594 9.49998C4.58594 12.2096 6.79039 14.4141 9.50001 14.4141C12.2096 14.4141 14.4141 12.2096 14.4141 9.49998C14.4141 6.79035 12.2096 4.58594 9.50001 4.58594ZM9.50001 12.5027C7.84167 12.5027 6.49734 11.1584 6.49734 9.50001C6.49734 7.84167 7.8417 6.49734 9.50001 6.49734C11.1584 6.49734 12.5027 7.84167 12.5027 9.50001C12.5027 11.1583 11.1583 12.5027 9.50001 12.5027Z" fill="white"/>
<path d="M14.4236 5.80034C15.0739 5.80034 15.6011 5.27315 15.6011 4.62283C15.6011 3.9725 15.0739 3.44531 14.4236 3.44531C13.7733 3.44531 13.2461 3.9725 13.2461 4.62283C13.2461 5.27315 13.7733 5.80034 14.4236 5.80034Z" fill="white"/>
</svg>
