<svg width="12" height="20" viewBox="0 0 12 20" fill="none" xmlns="http://www.w3.org/2000/svg">
<path d="M10.5801 8.7H2.83015V4.27C2.83015 3.43987 3.15992 2.64374 3.74691 2.05676C4.33389 1.46977 5.13002 1.14 5.96015 1.14C6.79028 1.14 7.58641 1.46977 8.17339 2.05676C8.76038 2.64374 9.09015 3.43987 9.09015 4.27V8.85C9.08879 8.92523 9.10261 8.99996 9.13078 9.06972C9.15894 9.13949 9.20088 9.20287 9.25408 9.25607C9.30728 9.30927 9.37066 9.35121 9.44043 9.37937C9.51019 9.40754 9.58492 9.42136 9.66015 9.42C9.81132 9.42 9.95631 9.35995 10.0632 9.25305C10.1701 9.14616 10.2301 9.00117 10.2301 8.85V4.27C10.2301 3.13753 9.78028 2.05143 8.9795 1.25065C8.17872 0.449874 7.09262 0 5.96015 0C4.82767 0 3.74158 0.449874 2.9408 1.25065C2.14002 2.05143 1.69015 3.13753 1.69015 4.27V8.7H1.34015C0.991582 8.69984 0.656672 8.83552 0.406493 9.07823C0.156313 9.32094 0.0105542 9.65159 0.000149274 10V18.64C-0.00250247 18.8176 0.0301995 18.994 0.0963526 19.1589C0.162506 19.3238 0.260789 19.4739 0.385484 19.6005C0.51018 19.727 0.658798 19.8275 0.822691 19.8961C0.986585 19.9647 1.16248 20 1.34015 20H10.5801C10.7561 20 10.9304 19.9653 11.0929 19.898C11.2555 19.8307 11.4032 19.732 11.5277 19.6075C11.6521 19.4831 11.7508 19.3354 11.8181 19.1728C11.8855 19.0102 11.9201 18.836 11.9201 18.66V10C11.9097 9.65159 11.764 9.32094 11.5138 9.07823C11.2636 8.83552 10.9287 8.69984 10.5801 8.7ZM1.14015 10C1.14011 9.97418 1.14534 9.94863 1.15551 9.9249C1.16567 9.90118 1.18057 9.87977 1.19929 9.86199C1.218 9.84421 1.24015 9.83043 1.26436 9.82149C1.28858 9.81255 1.31437 9.80864 1.34015 9.81H10.5801C10.6055 9.80855 10.6308 9.81247 10.6545 9.8215C10.6783 9.83054 10.6998 9.84448 10.7177 9.86243C10.7357 9.88037 10.7496 9.9019 10.7586 9.92561C10.7677 9.94932 10.7716 9.97467 10.7702 10V18.64C10.7716 18.6653 10.7677 18.6907 10.7586 18.7144C10.7496 18.7381 10.7357 18.7596 10.7177 18.7776C10.6998 18.7955 10.6783 18.8095 10.6545 18.8185C10.6308 18.8275 10.6055 18.8315 10.5801 18.83H1.34015C1.31437 18.8314 1.28858 18.8274 1.26436 18.8185C1.24015 18.8096 1.218 18.7958 1.19929 18.778C1.18057 18.7602 1.16567 18.7388 1.15551 18.7151C1.14534 18.6914 1.14011 18.6658 1.14015 18.64V10Z" fill="white"/>
</svg>
