<svg width="13" height="11" viewBox="0 0 13 11" fill="none" xmlns="http://www.w3.org/2000/svg">
<g clip-path="url(#clip0)">
<path fill-rule="evenodd" clip-rule="evenodd" d="M8.10465 5.22589L12.0727 2.03908V8.95415L8.10465 5.22589ZM5.78415 5.72093L6.38748 6.2005C6.45303 6.26029 6.53855 6.29343 6.62726 6.29343C6.71598 6.29343 6.8015 6.26029 6.86705 6.2005L7.47038 5.72093L11.3379 9.37958H1.92439L5.78415 5.72093ZM5.18082 5.22589L1.24371 8.95415V2.03908L5.18082 5.22589ZM6.6582 5.4038L2.01721 1.64459H11.2992L6.6582 5.4038ZM11.6859 0.871094H1.63046C1.32275 0.871094 1.02763 0.993334 0.810044 1.21092C0.592455 1.42851 0.470215 1.72362 0.470215 2.03134L0.470215 8.99283C0.470215 9.30055 0.592455 9.59566 0.810044 9.81325C1.02763 10.0308 1.32275 10.1531 1.63046 10.1531H11.6859C11.9937 10.1531 12.2888 10.0308 12.5064 9.81325C12.724 9.59566 12.8462 9.30055 12.8462 8.99283V2.03134C12.8462 1.72362 12.724 1.42851 12.5064 1.21092C12.2888 0.993334 11.9937 0.871094 11.6859 0.871094V0.871094Z" fill="white"/>
</g>
<defs>
<clipPath id="clip0">
<rect width="12.376" height="9.28198" fill="white" transform="translate(0.470215 0.871094)"/>
</clipPath>
</defs>
</svg>
