<svg width="19" height="19" viewBox="0 0 19 19" fill="none" xmlns="http://www.w3.org/2000/svg">
<g clip-path="url(#clip0)">
<path d="M9.03917 0.0109879C4.02129 0.249911 0.0614815 4.42883 0.0767039 9.45239C0.0813388 10.9824 0.450719 12.4266 1.10233 13.7027L0.101878 18.5589C0.0477587 18.8216 0.284682 19.0517 0.545643 18.9899L5.30424 17.8624C6.5268 18.4714 7.9 18.8232 9.3533 18.8454C14.4821 18.9237 18.7585 14.8513 18.9184 9.72449C19.0897 4.22885 14.554 -0.251655 9.03917 0.0109879ZM14.7172 14.6406C13.3236 16.0342 11.4707 16.8017 9.49989 16.8017C8.3459 16.8017 7.24107 16.5427 6.21599 16.0321L5.5533 15.702L2.63579 16.3932L3.24991 13.4121L2.92342 12.7727C2.39127 11.7306 2.12145 10.6036 2.12145 9.42322C2.12145 7.45236 2.88893 5.5995 4.28253 4.20586C5.66367 2.82471 7.54679 2.04474 9.50002 2.04474C11.4708 2.04479 13.3237 2.81226 14.7172 4.20581C16.1108 5.59941 16.8783 7.45227 16.8784 9.42308C16.8783 11.3764 16.0983 13.2595 14.7172 14.6406Z" fill="white"/>
<path d="M14.0731 11.4666L12.2478 10.9425C12.0079 10.8736 11.7495 10.9417 11.5746 11.1199L11.1282 11.5746C10.94 11.7664 10.6544 11.828 10.4053 11.7272C9.54189 11.3778 7.72557 9.76287 7.26172 8.95508C7.1279 8.72207 7.15003 8.43075 7.31434 8.21814L7.70403 7.71398C7.85671 7.51646 7.88892 7.25118 7.78796 7.02284L7.02002 5.286C6.83608 4.86999 6.30448 4.7489 5.95718 5.04262C5.44776 5.47348 4.84331 6.12822 4.76984 6.85358C4.64029 8.13244 5.18875 9.74456 7.26276 11.6803C9.65881 13.9166 11.5776 14.2121 12.8268 13.9094C13.5354 13.7378 14.1017 13.0498 14.4591 12.4864C14.7027 12.1023 14.5103 11.5922 14.0731 11.4666Z" fill="white"/>
</g>
<defs>
<clipPath id="clip0">
<rect width="19" height="19" fill="white"/>
</clipPath>
</defs>
</svg>
